<svg width="83" height="27" viewBox="0 0 83 27" fill="none" xmlns="http://www.w3.org/2000/svg">
<g filter="url(#filter0_d_9_238)">
<path d="M8.84961 18.1855C7.87305 18.1855 7.02344 17.9642 6.30078 17.5215C5.58464 17.0723 5.02799 16.444 4.63086 15.6367C4.24023 14.8229 4.04492 13.8626 4.04492 12.7559V12.7363C4.04492 11.6491 4.24023 10.7051 4.63086 9.9043C5.02799 9.10352 5.58464 8.48177 6.30078 8.03906C7.01693 7.59635 7.86328 7.375 8.83984 7.375C9.69271 7.375 10.4251 7.52799 11.0371 7.83398C11.6556 8.13997 12.1471 8.54688 12.5117 9.05469C12.8763 9.5625 13.1074 10.1224 13.2051 10.7344L13.2148 10.8027H11.5352L11.5156 10.7637C11.3919 10.2428 11.1022 9.80013 10.6465 9.43555C10.1973 9.06445 9.59505 8.87891 8.83984 8.87891C8.21484 8.87891 7.67448 9.03841 7.21875 9.35742C6.76302 9.66992 6.4082 10.1159 6.1543 10.6953C5.9069 11.2747 5.7832 11.9583 5.7832 12.7461V12.7559C5.7832 13.5632 5.91016 14.2598 6.16406 14.8457C6.41797 15.4316 6.77279 15.8841 7.22852 16.2031C7.69076 16.5221 8.22786 16.6816 8.83984 16.6816C9.54948 16.6816 10.1257 16.5254 10.5684 16.2129C11.0176 15.8939 11.3333 15.4414 11.5156 14.8555L11.5352 14.7969L13.2148 14.7871L13.1953 14.8848C13.0651 15.5228 12.8145 16.0924 12.4434 16.5938C12.0723 17.0885 11.5872 17.4792 10.9883 17.7656C10.3893 18.0456 9.67643 18.1855 8.84961 18.1855ZM15.256 18V7.56055H16.9552V15.3438H17.8439L16.6818 15.9688L22.2677 7.56055H23.967V18H22.2677V10.2168H21.3791L22.5412 9.5918L16.9552 18H15.256ZM33.5277 18V13.2832H28.3616V18H26.6624V7.56055H28.3616V11.877H33.5277V7.56055H35.2269V18H33.5277ZM37.9321 18V7.56055H39.6313V15.3438H40.52L39.3579 15.9688L44.9438 7.56055H46.643V18H44.9438V10.2168H44.0552L45.2173 9.5918L39.6313 18H37.9321ZM49.3385 18V7.56055H51.0377V15.3438H51.9264L50.7643 15.9688L56.3502 7.56055H58.0495V18H56.3502V10.2168H55.4616L56.6237 9.5918L51.0377 18H49.3385ZM53.7233 6.17383C53.0657 6.17383 52.4928 6.03711 52.0045 5.76367C51.5163 5.48372 51.1354 5.11263 50.862 4.65039C50.595 4.18164 50.4616 3.6543 50.4616 3.06836V3.05859H51.9557V3.07812C51.9557 3.58594 52.1087 4.03841 52.4147 4.43555C52.7272 4.82617 53.1634 5.02148 53.7233 5.02148C54.2832 5.02148 54.7161 4.82617 55.0221 4.43555C55.3346 4.03841 55.4909 3.58594 55.4909 3.07812V3.05859H56.985V3.06836C56.985 3.6543 56.8483 4.18164 56.5748 4.65039C56.3079 5.11263 55.9303 5.48372 55.442 5.76367C54.9538 6.03711 54.3808 6.17383 53.7233 6.17383Z" fill="#53DE22"/>
</g>
<defs>
<filter id="filter0_d_9_238" x="0.0449219" y="3.05859" width="62.0045" height="23.127" filterUnits="userSpaceOnUse" color-interpolation-filters="sRGB">
<feFlood flood-opacity="0" result="BackgroundImageFix"/>
<feColorMatrix in="SourceAlpha" type="matrix" values="0 0 0 0 0 0 0 0 0 0 0 0 0 0 0 0 0 0 127 0" result="hardAlpha"/>
<feOffset dy="4"/>
<feGaussianBlur stdDeviation="2"/>
<feComposite in2="hardAlpha" operator="out"/>
<feColorMatrix type="matrix" values="0 0 0 0 0 0 0 0 0 0 0 0 0 0 0 0 0 0 0.25 0"/>
<feBlend mode="normal" in2="BackgroundImageFix" result="effect1_dropShadow_9_238"/>
<feBlend mode="normal" in="SourceGraphic" in2="effect1_dropShadow_9_238" result="shape"/>
</filter>
</defs>
</svg>
